<svg xmlns="http://www.w3.org/2000/svg" viewBox="0 0 256 256" focusable="false" color="var(--token-b7e0ee39-7195-4e97-994f-cec289c7aee4, rgb(255, 255, 255))" style="user-select: none; width: 100%; height: 100%; display: inline-block; fill: var(--token-b7e0ee39-7195-4e97-994f-cec289c7aee4, rgb(255, 255, 255)); color: var(--token-b7e0ee39-7195-4e97-994f-cec289c7aee4, rgb(255, 255, 255)); flex-shrink: 0;"><g color="var(--token-b7e0ee39-7195-4e97-994f-cec289c7aee4, rgb(255, 255, 255))" weight="fill"><path d="M231.4,44.34s0,.1,0,.15l-58.2,191.94a15.88,15.88,0,0,1-14,11.51q-.69.06-1.38.06a15.86,15.86,0,0,1-14.42-9.15L107,164.15a4,4,0,0,1,.77-4.58l57.92-57.92a8,8,0,0,0-11.31-11.31L96.43,148.26a4,4,0,0,1-4.58.77L17.08,112.64a16,16,0,0,1,2.49-29.8l191.94-58.2.15,0A16,16,0,0,1,231.4,44.34Z"></path></g></svg>