<svg xmlns="http://www.w3.org/2000/svg" viewBox="0 0 577.60845 66.66485"><defs><style>.cls-1{fill:#051843;}</style></defs><title>HumanGreenLogo </title><g id="Layer_2" data-name="Layer 2"><g id="Layer_1-2" data-name="Layer 1"><path class="cls-1" d="M133.88286,53.37362q2.34082-1.31984,2.34082-6.78028V33.75252h-21.542V46.35311q0,5.82129,2.28027,7.02051H106.5811q2.27929-1.3799,2.28027-6.90039V19.71151q0-5.22071-2.28027-6.4209h10.44043q-2.33935,1.32129-2.33984,6.96094v9.24023h21.542V19.71151q0-5.22071-2.28027-6.4209h10.44043Q142.043,14.6119,142.044,20.37166V46.35311q0,5.82129,2.33985,7.02051Z"/><path class="cls-1" d="M169.40532,53.37362l.06055-4.5a11.25755,11.25755,0,0,1-3.69043,3.80957A9.66126,9.66126,0,0,1,160.7647,53.734q-10.25978-.12159-10.08008-12.72168l.12011-10.98047q.11866-3.71923-1.98046-4.98047l3.60058-.12012q1.55859-.11865,1.97949-.17968a2.91474,2.91474,0,0,0,1.56055-.54l-.06055,15.78125a14.094,14.094,0,0,0,1.2002,6.54q1.5,2.70117,5.46094,2.82031a6.20567,6.20567,0,0,0,5.16015-2.46,8.88285,8.88285,0,0,0,1.79981-5.58008l.12011-10.98145q.06006-3.71924-1.97949-5.04l2.7002-.17969,1.5.05957a4.7657,4.7657,0,0,0,2.87988-.66016l-.05957,23.582q-.12157,4.08107,1.91992,5.28028Z"/><path class="cls-1" d="M218.42876,53.43319q2.03905-1.49855,2.04-5.51953V38.67244q0-10.31982-6.72071-10.32031-3.95946,0-5.58007,2.82031-1.25978,2.15919-1.26075,6.54V48.09334q0,4.021,1.98047,5.28028h-9.24023q2.03905-1.49855,2.04-5.46V38.13241a13.38441,13.38441,0,0,0-1.44043-6.48047,5.60254,5.60254,0,0,0-5.33985-3.29981q-6.78222,0-6.78125,8.82031v11.041q0,3.84082,1.98047,5.16016h-9.18066q1.98047-1.56006,1.98047-5.46V30.39217q0-3.65918-1.98047-4.9209a29.761,29.761,0,0,0,5.46-.35937,2.92282,2.92282,0,0,0,1.56055-.54l.17968,4.98047a12.34265,12.34265,0,0,1,3.4209-3.84082,9.0843,9.0843,0,0,1,4.98047-1.2002q5.87988,0,9.24023,5.40039,3.71925-5.39941,9.4209-5.40039,6.06006,0,8.46,3.4209,2.04054,2.81982,2.041,9.18066V47.91366q0,4.56,2.16016,5.46Z"/><path class="cls-1" d="M256.41118,54.03377q-7.68164,0-7.68066-6.24023V37.95272a28.43012,28.43012,0,0,1-6.36036,2.09961,11.769,11.769,0,0,0-3.90039,1.44043,4.04232,4.04232,0,0,0-1.67968,3.60058q0,5.10059,6.54,5.09961a14.44669,14.44669,0,0,0,4.02051-.77929L244.04985,53.734a18.94952,18.94952,0,0,1-3,.2998,10.83427,10.83427,0,0,1-7.08008-2.40039,7.92452,7.92452,0,0,1-2.94043-6.48047q0-4.43994,2.63965-6,1.26123-.7207,8.76074-2.58007,6.3003-1.56006,6.30079-4.20118a3.47146,3.47146,0,0,0-2.04-3.12011,7.66178,7.66178,0,0,0-3.78028-.89942q-3.00145,0-7.74023,2.33985l3.71973-5.82032a26.04281,26.04281,0,0,1,6.09082-.2998,10.84939,10.84939,0,0,1,5.79,1.74023q3.12012,2.2207,3.12012,7.37989v9.18066q0,4.14111.54,5.10059.95947,1.80029,4.44043,2.21972Z"/><path class="cls-1" d="M279.33208,53.37362q2.03905-1.43994,2.04-5.58008v-9.4209q0-4.68018-1.26075-6.96094-1.74023-3.06006-6-3.05957-6.36182,0-6.36035,7.44043V48.15291q0,3.96095,2.04,5.22071h-9.30078q2.03907-1.49855,2.04-5.64063V30.45174q0-3.71924-2.04-4.98047l5.2207-.2998a4.392,4.392,0,0,0,1.85938-.59961l.18066,4.7998q3.42042-4.86034,8.46-4.86035,9.24024,0,10.26075,8.46094.12011,1.43994.12011,4.7998V48.15291q0,3.96095,1.98047,5.22071Z"/><path class="cls-1" d="M332.49419,54.33358q-10.44141,0-16.86133-5.10059-7.14111-5.57959-7.14063-15.66113,0-10.19972,7.26075-15.96094,6.53906-5.27929,17.10058-5.28027a44.1443,44.1443,0,0,1,9.18067,1.02051v6.71972q-3.54054-3.53905-10.62012-3.54a16.11031,16.11031,0,0,0-11.82129,4.5,15.83192,15.83192,0,0,0-4.5,11.70117,17.13142,17.13142,0,0,0,4.86035,12.36133,16.14759,16.14759,0,0,0,12.1211,5.04,29.184,29.184,0,0,0,8.28027-1.20019V47.733q.05859-1.25976.08984-2.73047.02929-1.46923,0-3.17968-.03076-1.71095-.12011-3.24024a16.59741,16.59741,0,0,0-.26954-2.37012,4.33338,4.33338,0,0,0-2.10058-3l8.52051-.18066a10.32916,10.32916,0,0,0-.23926,2.76074V51.15389a3.41333,3.41333,0,0,0,.23926,1.37988A79.935,79.935,0,0,1,332.49419,54.33358Z"/><path class="cls-1" d="M362.376,29.13143q-3.90087,0-5.34082,2.64062-1.13964,1.86036-1.13965,6.24024v10.081q0,4.021,1.98047,5.28028h-9.30078q2.09913-1.56006,2.09961-5.46V30.27205q0-3.54053-2.04-4.80078,6.3003-.23877,7.08106-.89941l.17968,4.86035a8.37054,8.37054,0,0,1,2.82032-3.541,6.03422,6.03422,0,0,1,2.96972-1.3496,13.01665,13.01665,0,0,1,3.33106.15039v5.33984A3.58228,3.58228,0,0,0,362.376,29.13143Z"/><path class="cls-1" d="M374.25591,38.193a11.85878,11.85878,0,0,0,3.24023,8.73047,11.69564,11.69564,0,0,0,8.70117,3.26953,15.40588,15.40588,0,0,0,9.48047-3l-2.64062,5.34082a19.28938,19.28938,0,0,1-8.10059,1.5,18.04488,18.04488,0,0,1-11.76074-3.90039,13.60546,13.60546,0,0,1-5.10059-11.041,14.21261,14.21261,0,0,1,4.08106-10.501,14.36592,14.36592,0,0,1,10.62011-4.08008,12.60765,12.60765,0,0,1,9.541,3.90039,13.60641,13.60641,0,0,1,3.66016,9.78125Zm7.98046-9.84082a7.48253,7.48253,0,0,0-7.74023,6.48047h15.48145Q388.95659,28.35214,382.23637,28.35213Z"/><path class="cls-1" d="M405.15825,38.193a11.85882,11.85882,0,0,0,3.24023,8.73047,11.69565,11.69565,0,0,0,8.70118,3.26953,15.40587,15.40587,0,0,0,9.48046-3l-2.64062,5.34082a19.28935,19.28935,0,0,1-8.10059,1.5,18.0449,18.0449,0,0,1-11.76074-3.90039,13.60545,13.60545,0,0,1-5.10058-11.041,14.2126,14.2126,0,0,1,4.08105-10.501,14.366,14.366,0,0,1,10.62012-4.08008,12.60765,12.60765,0,0,1,9.541,3.90039,13.60637,13.60637,0,0,1,3.66016,9.78125Zm7.98047-9.84082a7.48255,7.48255,0,0,0-7.74024,6.48047h15.48145Q419.85894,28.35214,413.13872,28.35213Z"/><path class="cls-1" d="M449.08208,53.37362q2.03905-1.43994,2.04-5.58008v-9.4209q0-4.68018-1.26075-6.96094-1.74023-3.06006-6-3.05957-6.36182,0-6.36035,7.44043V48.15291q0,3.96095,2.04,5.22071h-9.30078q2.03907-1.49855,2.04-5.64063V30.45174q0-3.71924-2.04-4.98047l5.2207-.2998a4.392,4.392,0,0,0,1.85938-.59961l.18066,4.7998q3.42042-4.86034,8.46-4.86035,9.24024,0,10.26075,8.46094.12011,1.43994.12011,4.7998V48.15291q0,3.96095,1.98047,5.22071Z"/><path class="cls-1" d="M494.44341,35.31209a10.48275,10.48275,0,0,1-3.96-.66015,10.93268,10.93268,0,0,0,7.20019-2.75977,8.59318,8.59318,0,0,0,3.12012-6.78027,7.098,7.098,0,0,0-2.25-5.6709,9.27481,9.27481,0,0,0-6.27051-1.9502,20.82035,20.82035,0,0,0-4.2002.41993V45.7535a21.78,21.78,0,0,0,.29981,4.32031,5.10951,5.10951,0,0,0,2.52051,3.29981h-11.041q2.34083-1.31984,2.33985-7.08008V20.37166q0-5.63964-2.28028-6.90136l13.98145-.17969a15.23876,15.23876,0,0,1,9.24023,2.46,9.32212,9.32212,0,0,1,4.20117,8.16113,10.28852,10.28852,0,0,1-3.96093,8.34082A13.62169,13.62169,0,0,1,494.44341,35.31209Z"/><path class="cls-1" d="M509.74321,53.37362q2.04053-1.43994,2.041-4.98047V18.27108q0-3.479-2.041-4.80078l5.76074-.29981a2.67868,2.67868,0,0,0,1.32032-.71973l.17968,36.42286q0,3.24022,2.04,4.5Z"/><path class="cls-1" d="M544.48637,53.37362l.06055-4.5a11.25736,11.25736,0,0,1-3.69043,3.80957,9.66124,9.66124,0,0,1-5.01074,1.05078q-10.25976-.12159-10.08008-12.72168l.12012-10.98047q.11865-3.71923-1.98047-4.98047l3.60059-.12012q1.55859-.11865,1.97949-.17968a2.91477,2.91477,0,0,0,1.56055-.54l-.06055,15.78125a14.09405,14.09405,0,0,0,1.20019,6.54q1.5,2.70117,5.46094,2.82031a6.20569,6.20569,0,0,0,5.16016-2.46,8.8829,8.8829,0,0,0,1.7998-5.58008l.12012-10.98145q.06006-3.71924-1.97949-5.04l2.70019-.17969,1.5.05957a4.76571,4.76571,0,0,0,2.87989-.66016l-.05958,23.582q-.12158,4.08107,1.91993,5.28028Z"/><path class="cls-1" d="M564.40727,54.03377a20.025,20.025,0,0,1-7.62011-1.44043l-1.98047-5.70019a19.83526,19.83526,0,0,0,10.98047,3.2998,10.24662,10.24662,0,0,0,4.26074-.83984,3.4626,3.4626,0,0,0,2.33984-3.24024q0-2.15918-4.01953-4.13964-.36034-.18018-7.86133-3.18067-4.13964-2.21923-4.13965-6.18066a6.8481,6.8481,0,0,1,3.78028-6.48047,16.0012,16.0012,0,0,1,7.74023-1.62012,23.99132,23.99132,0,0,1,6.48047.78028v4.98046a14.94672,14.94672,0,0,0-7.20019-1.91992q-5.64112,0-5.64063,3,0,1.86036,5.58008,4.32031,2.521,1.07959,8.041,3.41993,2.45948,1.38134,2.46,5.5205a7.98007,7.98007,0,0,1-4.44043,7.32032A17.102,17.102,0,0,1,564.40727,54.03377Z"/><path class="cls-1" d="M83.71138,32.31844c-4.37916-18.918-12.69956-23.122-24.61087-26.71286S32.97153.00026,29.84774.00026,7.33887-.2187,2.65317,12.04294s-1.97062,22.903-.832,27.5449c0,0,3.82445,14.59718,15.73576,22.7132s30.07023,2.97783,42.507,0S88.09053,51.2364,83.71138,32.31844Zm-58.7975-1.0802S32.738,14.65581,43.65667,4.78812c0,0-1.28454,2.83187-4.17478,8.4372S11.80561,55.44039,41.84663,62.53463C41.84663,62.53463,4.71138,65.92116,24.91388,31.23824ZM50.8677,61.6588s4.29157-9.19623,4.02882-18.7428c0,0,.30654-9.15244-8.14523-5.47394a101.92986,101.92986,0,0,1-13.0061,5.671S53.32,33.36944,63.83,14.62665C63.83,14.62665,63.83,43.35392,50.8677,61.6588Z"/></g></g></svg>